<svg preserveAspectRatio="none" overflow="visible" style="display: block;" width="9.91089" height="2" viewBox="0 0 9.91089 2" fill="none" xmlns="http://www.w3.org/2000/svg">
<g id="Shape">
<path d="M0.991089 2C1.53845 2 1.98218 1.55228 1.98218 1C1.98218 0.447715 1.53845 0 0.991089 0C0.443726 0 0 0.447715 0 1C0 1.55228 0.443726 2 0.991089 2Z" fill="#040415"/>
<path d="M5.94653 1C5.94653 1.55228 5.50281 2 4.95545 2C4.40808 2 3.96436 1.55228 3.96436 1C3.96436 0.447715 4.40808 0 4.95545 0C5.50281 0 5.94653 0.447715 5.94653 1Z" fill="#040415"/>
<path d="M9.91089 1C9.91089 1.55228 9.46717 2 8.9198 2C8.37244 2 7.92871 1.55228 7.92871 1C7.92871 0.447715 8.37244 0 8.9198 0C9.46717 0 9.91089 0.447715 9.91089 1Z" fill="#040415"/>
</g>
</svg>
